<svg width="37" height="168" viewBox="0 0 37 168" fill="none" xmlns="http://www.w3.org/2000/svg">
<path d="M36.5 19.2552L36.5 16.2885L0.52581 16.2885L0.52581 19.2552L36.5 19.2552Z" fill="white" fill-opacity="0.3"/>
<path d="M36.5 28.1522L36.5 23.7269L0.52581 23.7269L0.52581 28.1522L36.5 28.1522Z" fill="white" fill-opacity="0.3"/>
<path d="M36.5 31.1187L36.5 29.6115L0.52581 29.6115L0.52581 31.1187L36.5 31.1187Z" fill="white" fill-opacity="0.3"/>
<path d="M36.5 35.5445L36.5 32.5777L0.500111 32.5777L0.50011 35.5445L36.5 35.5445Z" fill="white" fill-opacity="0.3"/>
<path d="M36.5 8.89881L36.5 5.93188L0.52581 5.93188L0.52581 8.89881L36.5 8.89881Z" fill="white" fill-opacity="0.3"/>
<path d="M36.5 14.8307L36.5 11.8638L0.52581 11.8638L0.52581 14.8307L36.5 14.8307Z" fill="white" fill-opacity="0.3"/>
<path d="M36.5 2.96676L36.5 0L0.52581 -1.57248e-06L0.52581 2.96676L36.5 2.96676Z" fill="white" fill-opacity="0.3"/>
<path d="M36.5 150.416L36.5 147.496L0.52581 147.496L0.52581 150.416L36.5 150.416Z" fill="white" fill-opacity="0.3"/>
<path d="M36.5 143.024L36.5 141.564L0.52581 141.564L0.52581 143.024L36.5 143.024Z" fill="white" fill-opacity="0.3"/>
<path d="M36.5 159.313L36.5 157.853L0.52581 157.853L0.52581 159.313L36.5 159.313Z" fill="white" fill-opacity="0.3"/>
<path d="M36.5 156.347L36.5 154.886L0.52581 154.886L0.52581 156.347L36.5 156.347Z" fill="white" fill-opacity="0.3"/>
<path d="M36.5 131.208L36.5 129.7L0.52581 129.7L0.52581 131.208L36.5 131.208Z" fill="white" fill-opacity="0.3"/>
<path d="M36.5 135.633L36.5 134.173L0.52581 134.173L0.52581 135.633L36.5 135.633Z" fill="white" fill-opacity="0.3"/>
<path d="M36.5 128.242L36.5 125.275L0.500111 125.275L0.50011 128.242L36.5 128.242Z" fill="white" fill-opacity="0.3"/>
<path d="M36.5 162.28L36.5 160.819L0.52581 160.819L0.52581 162.28L36.5 162.28Z" fill="white" fill-opacity="0.3"/>
<path d="M36.4995 168L36.4995 165.033L0.525322 165.033L0.525322 168L36.4995 168Z" fill="white" fill-opacity="0.3"/>
<path d="M36.5 63.5154L36.5 60.596L0.52581 60.596L0.52581 63.5154L36.5 63.5154Z" fill="white" fill-opacity="0.3"/>
<path d="M36.5 56.1236L36.5 54.6636L0.52581 54.6636L0.52581 56.1236L36.5 56.1236Z" fill="white" fill-opacity="0.3"/>
<path d="M36.5 72.4129L36.5 70.9522L0.52581 70.9522L0.52581 72.4129L36.5 72.4129Z" fill="white" fill-opacity="0.3"/>
<path d="M36.5 69.4467L36.5 67.986L0.52581 67.986L0.52581 69.4467L36.5 69.4467Z" fill="white" fill-opacity="0.3"/>
<path d="M36.5 44.3074L36.5 42.7999L0.52581 42.7999L0.52581 44.3074L36.5 44.3074Z" fill="white" fill-opacity="0.3"/>
<path d="M36.5 48.7327L36.5 47.2722L0.52581 47.2722L0.52581 48.7327L36.5 48.7327Z" fill="white" fill-opacity="0.3"/>
<path d="M36.5 41.3413L36.5 38.3744L0.500111 38.3744L0.50011 41.3413L36.5 41.3413Z" fill="white" fill-opacity="0.3"/>
<path d="M36.5 75.379L36.5 73.9184L0.52581 73.9183L0.52581 75.379L36.5 75.379Z" fill="white" fill-opacity="0.3"/>
<path d="M36.5 106.451L36.5 103.484L0.52581 103.484L0.52581 106.451L36.5 106.451Z" fill="white" fill-opacity="0.3"/>
<path d="M36.5 115.348L36.5 110.923L0.52581 110.923L0.52581 115.348L36.5 115.348Z" fill="white" fill-opacity="0.3"/>
<path d="M36.5 118.314L36.5 116.807L0.52581 116.807L0.52581 118.314L36.5 118.314Z" fill="white" fill-opacity="0.3"/>
<path d="M36.5 122.74L36.5 119.773L0.500111 119.773L0.50011 122.74L36.5 122.74Z" fill="white" fill-opacity="0.3"/>
<path d="M36.5 96.0937L36.5 93.1268L0.52581 93.1268L0.52581 96.0937L36.5 96.0937Z" fill="white" fill-opacity="0.3"/>
<path d="M36.5 102.026L36.5 99.0588L0.52581 99.0588L0.52581 102.026L36.5 102.026Z" fill="white" fill-opacity="0.3"/>
<path d="M36.5 90.162L36.5 87.1952L0.52581 87.1952L0.52581 90.162L36.5 90.162Z" fill="white" fill-opacity="0.3"/>
<path d="M36.5 82.7703L36.5 79.803L0.52581 79.803L0.52581 82.7703L36.5 82.7703Z" fill="white" fill-opacity="0.3"/>
</svg>
