<svg width="90" height="35" viewBox="0 0 90 35" fill="none" xmlns="http://www.w3.org/2000/svg">
<g opacity="0.15">
<path d="M79.3061 0.00012207H77.2441V45.9672H79.3061V0.00012207Z" fill="white"/>
<path d="M74.0835 0.00012207H73.0527V45.9672H74.0835V0.00012207Z" fill="white"/>
<path d="M85.5918 0.00012207H84.5605V45.9672H85.5918V0.00012207Z" fill="white"/>
<path d="M83.4966 0.00012207H82.4653V45.9672H83.4966V0.00012207Z" fill="white"/>
<path d="M65.7352 0.00012207H64.6709V45.9672H65.7352V0.00012207Z" fill="white"/>
<path d="M68.8617 0.00012207H67.8306V45.9672H68.8617V0.00012207Z" fill="white"/>
<path d="M63.6399 6.10352e-05H61.5444V45.9999H63.6399V6.10352e-05Z" fill="white"/>
<path d="M87.6875 0.00012207H86.6562V45.9672H87.6875V0.00012207Z" fill="white"/>
<path d="M17.9101 0H15.8481V45.967H17.9101V0Z" fill="white"/>
<path d="M12.6875 0H11.6567V45.967H12.6875V0Z" fill="white"/>
<path d="M24.1963 0H23.165V45.967H24.1963V0Z" fill="white"/>
<path d="M22.1006 0H21.0693V45.967H22.1006V0Z" fill="white"/>
<path d="M4.33924 0H3.2749V45.967H4.33924V0Z" fill="white"/>
<path d="M7.46571 0H6.43457V45.967H7.46571V0Z" fill="white"/>
<path d="M2.24392 6.10352e-05H0.148438V45.9999H2.24392V6.10352e-05Z" fill="white"/>
<path d="M26.2915 0H25.2603V45.967H26.2915V0Z" fill="white"/>
<path d="M48.2443 0H46.1489V45.967H48.2443V0Z" fill="white"/>
<path d="M54.5308 0H51.4043V45.967H54.5308V0Z" fill="white"/>
<path d="M56.6256 0H55.5615V45.967H56.6256V0Z" fill="white"/>
<path d="M59.7526 0H57.6572V45.9999H59.7526V0Z" fill="white"/>
<path d="M40.927 0H38.8315V45.967H40.927V0Z" fill="white"/>
<path d="M45.1179 0H43.0225V45.967H45.1179V0Z" fill="white"/>
<path d="M36.736 0H34.6406V45.967H36.736V0Z" fill="white"/>
<path d="M31.5137 0H29.418V45.967H31.5137V0Z" fill="white"/>
</g>
</svg>
