<svg width="280" height="512" viewBox="0 0 280 512" fill="none" xmlns="http://www.w3.org/2000/svg">
<path d="M280 492V20C269 20 260 11 260 0H240C240 6.6 234.6 12 228 12C221.4 12 216 6.6 216 0H196C196 6.6 190.6 12 184 12C177.4 12 172 6.6 172 0H152C152 6.6 146.6 12 140 12C133.4 12 128 6.6 128 0H108C108 6.6 102.6 12 96 12C89.4 12 84 6.6 84 0H64C64 6.6 58.6 12 52 12C45.4 12 40 6.6 40 0H20C20 11 11 20 0 20V492C11 492 20 501 20 512H40C40 505.4 45.4 500 52 500C58.6 500 64 505.4 64 512H84C84 505.4 89.4 500 96 500C102.6 500 108 505.4 108 512H128C128 505.4 133.4 500 140 500C146.6 500 152 505.4 152 512H172C172 505.4 177.4 500 184 500C190.6 500 196 505.4 196 512H216C216 505.4 221.4 500 228 500C234.6 500 240 505.4 240 512H260C260 501 269 492 280 492Z" fill="#2D2D2D"/>
</svg>
