<svg width="280" height="513" viewBox="0 0 280 513" fill="none" xmlns="http://www.w3.org/2000/svg">
<path d="M262.9 0.481934L280 20.0819V308.882V328.482V347.882V492.882L262.9 512.482H17.1L0 492.882V347.882V328.482V308.882V20.0819L17.1 0.481934H262.9Z" fill="#212121"/>
<path d="M279.5 21.0851H280V26.1227H279.5V26.6227V27.629V28.129H280V33.1666H279.5V33.6666V34.6729V35.1729H280V40.2105H279.5V40.7105V41.7168V42.2168H280V47.2544H279.5V47.7544V48.7607V49.2607H280V54.2984H279.5V54.7984V55.8046V56.3046H280V61.3423H279.5V61.8423V62.8485V63.3485H280V68.3862H279.5V68.8862V69.8924V70.3924H280V75.4301H279.5V75.9301V76.9363V77.4363H280V82.474H279.5V82.974V83.9802V84.4802H280V89.5179H279.5V90.0179V91.0241V91.5241H280V96.5618H279.5V97.0618V98.068V98.568H280V103.606H279.5V104.106V105.112V105.612H280V110.65H279.5V111.15V112.156V112.656H280V117.693H279.5V118.193V119.2V119.7H280V124.737H279.5V125.237V126.244V126.744H280V131.781H279.5V132.281V133.288V133.788H280V138.825H279.5V139.325V140.331V140.831H280V145.869H279.5V146.369V147.375V147.875H280V152.913H279.5V153.413V154.419V154.919H280V159.957H279.5V160.457V161.463V161.963H280V167.001H279.5V167.501V168.507V169.007H280V174.045H279.5V174.545V175.551V176.051H280V181.089H279.5V181.589V182.595V183.095H280V188.132H279.5V188.632V189.639V190.139H280V195.176H279.5V195.676V196.683V197.183H280V202.22H279.5V202.72V203.727V204.227H280V209.264H279.5V209.764V210.77V211.27H280V216.308H279.5V216.808V217.814V218.314H280V223.352H279.5V223.852V224.858V225.358H280V230.396H279.5V230.896V231.902V232.402H280V237.44H279.5V237.94V238.946V239.446H280V244.484H279.5V244.984V245.99V246.49H280V251.528H279.5V252.028V253.034V253.534H280V258.571H279.5V259.071V260.078V260.578H280V265.615H279.5V266.115V267.122V267.622H280V272.659H279.5V273.159V274.166V274.666H280V279.703H279.5V280.203V281.209V281.709H280V286.747H279.5V287.247V288.253V288.753H280V293.791H279.5V294.291V295.297V295.797H280V300.835H279.5V301.335V302.341V302.841H280V307.879H279.5V308.379V308.882V309.349V309.849H280V314.449H279.5V314.949V315.882V316.382H280V320.982H279.5V321.482V322.415V322.915H280V327.515H279.5V328.015V328.482V328.944V329.444H280V333.987H279.5V334.487V335.41V335.91H280V340.453H279.5V340.953V341.877V342.377H280V346.92H279.5V347.42V347.882V348.375V348.875H280V353.794H279.5V354.294V355.28V355.78H280V360.698H279.5V361.198V362.185V362.685H280V367.603H279.5V368.103V369.089V369.589H280V374.508H279.5V375.008V375.994V376.494H280V381.413H279.5V381.913V382.899V383.399H280V388.317H279.5V388.817V389.804V390.304H280V395.222H279.5V395.722V396.708V397.208H280V402.127H279.5V402.627V403.613V404.113H280V409.032H279.5V409.532V410.518V411.018H280V415.936H279.5V416.436V417.423V417.923H280V422.841H279.5V423.341V424.328V424.828H280V429.746H279.5V430.246V431.232V431.732H280V436.651H279.5V437.151V438.137V438.637H280V443.555H279.5V444.055V445.042V445.542H280V450.46H279.5V450.96V451.947V452.447H280V457.365H279.5V457.865V458.851V459.351H280V464.27H279.5V464.77V465.756V466.256H280V471.174H279.5V471.674V472.661V473.161H280V478.079H279.5V478.579V479.566V480.066H280V484.984H279.5V485.484V486.47V486.97H280V491.889H279.5V492.389V492.694L279.318 492.903L278.989 493.28L279.366 493.609L276.359 497.055L275.982 496.726L275.654 497.103L275.043 497.803L274.714 498.18L275.091 498.509L272.084 501.955L271.707 501.626L271.379 502.003L270.768 502.703L270.439 503.08L270.816 503.409L267.809 506.855L267.432 506.526L267.104 506.903L266.493 507.603L266.164 507.98L266.541 508.309L263.534 511.755L263.157 511.426L262.829 511.803L262.673 511.982H262.398H261.898V512.482H256.879V511.982H256.379H255.376H254.876V512.482H249.856V511.982H249.356H248.353H247.853V512.482H242.833V511.982H242.333H241.33H240.83V512.482H235.81V511.982H235.31H234.307H233.807V512.482H228.787V511.982H228.287H227.284H226.784V512.482H221.764V511.982H221.264H220.261H219.761V512.482H214.742V511.982H214.242H213.238H212.738V512.482H207.719V511.982H207.219H206.216H205.716V512.482H200.696V511.982H200.196H199.193H198.693V512.482H193.673V511.982H193.173H192.17H191.67V512.482H186.65V511.982H186.15H185.147H184.647V512.482H179.627V511.982H179.127H178.124H177.624V512.482H172.604V511.982H172.104H171.101H170.601V512.482H165.582V511.982H165.082H164.078H163.578V512.482H158.559V511.982H158.059H157.055H156.555V512.482H151.536V511.982H151.036H150.033H149.533V512.482H144.513V511.982H144.013H143.01H142.51V512.482H137.49V511.982H136.99H135.987H135.487V512.482H130.467V511.982H129.967H128.964H128.464V512.482H123.444V511.982H122.944H121.941H121.441V512.482H116.422V511.982H115.922H114.918H114.418V512.482H109.399V511.982H108.899H107.896H107.396V512.482H102.376V511.982H101.876H100.873H100.373V512.482H95.3531V511.982H94.8531H93.8498H93.3498V512.482H88.3302V511.982H87.8302H86.8269H86.3269V512.482H81.3074V511.982H80.8074H79.8041H79.3041V512.482H74.2845V511.982H73.7845H72.7812H72.2812V512.482H67.2616V511.982H66.7616H65.7584H65.2584V512.482H60.2388V511.982H59.7388H58.7355H58.2355V512.482H53.2159V511.982H52.7159H51.7127H51.2127V512.482H46.1931V511.982H45.6931H44.6898H44.1898V512.482H39.1702V511.982H38.6702H37.6669H37.1669V512.482H32.1473V511.982H31.6473H30.6441H30.1441V512.482H25.1245V511.982H24.6245H23.6212H23.1212V512.482H18.1016V511.982H17.6016H17.3273L17.1714 511.803L16.8427 511.426L16.4659 511.755L13.4591 508.309L13.8358 507.98L13.5071 507.603L12.8964 506.903L12.5677 506.526L12.1909 506.855L9.18406 503.409L9.56083 503.08L9.23212 502.703L8.62141 502.003L8.2927 501.626L7.91594 501.955L4.90907 498.509L5.28583 498.18L4.95712 497.803L4.34641 497.103L4.0177 496.726L3.64094 497.055L0.634071 493.609L1.01083 493.28L0.682121 492.903L0.5 492.694V492.389V491.889H0V486.97H0.5V486.47V485.484V484.984H0V480.066H0.5V479.566V478.579V478.079H0V473.161H0.5V472.661V471.674V471.174H0V466.256H0.5V465.756V464.77V464.27H0V459.351H0.5V458.851V457.865V457.365H0V452.447H0.5V451.947V450.96V450.46H0V445.542H0.5V445.042V444.055V443.555H0V438.637H0.5V438.137V437.151V436.651H0V431.732H0.5V431.232V430.246V429.746H0V424.828H0.5V424.328V423.341V422.841H0V417.923H0.5V417.423V416.436V415.936H0V411.018H0.5V410.518V409.532V409.032H0V404.113H0.5V403.613V402.627V402.127H0V397.208H0.5V396.708V395.722V395.222H0V390.304H0.5V389.804V388.817V388.317H0V383.399H0.5V382.899V381.913V381.413H0V376.494H0.5V375.994V375.008V374.508H0V369.589H0.5V369.089V368.103V367.603H0V362.685H0.5V362.185V361.198V360.698H0V355.78H0.5V355.28V354.293V353.793H0V348.875H0.5V348.375V347.882V347.42V346.92H0V342.377H0.5V341.877V340.953V340.453H0V335.91H0.5V335.41V334.487V333.987H0V329.444H0.5V328.944V328.482V328.015V327.515H0V322.915H0.5V322.415V321.482V320.982H0V316.382H0.5V315.882V314.949V314.449H0V309.849H0.5V309.349V308.882V308.379V307.879H0V302.841H0.5V302.341V301.335V300.835H0V295.797H0.5V295.297V294.291V293.791H0V288.753H0.5V288.253V287.247V286.747H0V281.709H0.5V281.209V280.203V279.703H0V274.665H0.5V274.165V273.159V272.659H0V267.622H0.5V267.122V266.115V265.615H0V260.578H0.5V260.078V259.071V258.571H0V253.534H0.5V253.034V252.028V251.528H0V246.49H0.5V245.99V244.984V244.484H0V239.446H0.5V238.946V237.94V237.44H0V232.402H0.5V231.902V230.896V230.396H0V225.358H0.5V224.858V223.852V223.352H0V218.314H0.5V217.814V216.808V216.308H0V211.27H0.5V210.77V209.764V209.264H0V204.227H0.5V203.727V202.72V202.22H0V197.183H0.5V196.683V195.676V195.176H0V190.139H0.5V189.639V188.632V188.132H0V183.095H0.5V182.595V181.589V181.089H0V176.051H0.5V175.551V174.545V174.045H0V169.007H0.5V168.507V167.501V167.001H0V161.963H0.5V161.463V160.457V159.957H0V154.919H0.5V154.419V153.413V152.913H0V147.875H0.5V147.375V146.369V145.869H0V140.831H0.5V140.331V139.325V138.825H0V133.787H0.5V133.287V132.281V131.781H0V126.744H0.5V126.244V125.237V124.737H0V119.7H0.5V119.2V118.193V117.693H0V112.656H0.5V112.156V111.15V110.65H0V105.612H0.5V105.112V104.106V103.606H0V98.568H0.5V98.068V97.0617V96.5617H0V91.5241H0.5V91.0241V90.0178V89.5178H0V84.4802H0.5V83.9802V82.9739V82.4739H0V77.4363H0.5V76.9363V75.93V75.43H0V70.3924H0.5V69.8924V68.8861V68.3861H0V63.3485H0.5V62.8485V61.8422V61.3422H0V56.3046H0.5V55.8046V54.7983V54.2983H0V49.2607H0.5V48.7607V47.7544V47.2544H0V42.2168H0.5V41.7168V40.7105V40.2105H0V35.1729H0.5V34.6729V33.6666V33.1666H0V28.129H0.5V27.629V26.6227V26.1227H0V21.0851H0.5V20.5851V20.2694L0.682121 20.0606L1.01083 19.6839L0.634064 19.3552L3.64093 15.9087L4.0177 16.2374L4.34641 15.8606L4.95712 15.1606L5.28583 14.7839L4.90906 14.4552L7.91594 11.0087L8.2927 11.3374L8.62141 10.9606L9.23212 10.2606L9.56083 9.88388L9.18406 9.55517L12.1909 6.1087L12.5677 6.43741L12.8964 6.06064L13.5071 5.36064L13.8358 4.98388L13.4591 4.65517L16.4659 1.2087L16.8427 1.53741L17.1714 1.16064L17.3273 0.981934H17.6016H18.1016V0.481934H23.1212V0.981934H23.6212H24.6245H25.1245V0.481934H30.1441V0.981934H30.6441H31.6473H32.1473V0.481934H37.1669V0.981934H37.6669H38.6702H39.1702V0.481934H44.1898V0.981934H44.6898H45.6931H46.1931V0.481934H51.2126V0.981934H51.7126H52.7159H53.2159V0.481934H58.2355V0.981934H58.7355H59.7388H60.2388V0.481934H65.2584V0.981934H65.7584H66.7616H67.2616V0.481934H72.2812V0.981934H72.7812H73.7845H74.2845V0.481934H79.3041V0.981934H79.8041H80.8073H81.3073V0.481934H86.3269V0.981934H86.8269H87.8302H88.3302V0.481934H93.3498V0.981934H93.8498H94.8531H95.3531V0.481934H100.373V0.981934H100.873H101.876H102.376V0.481934H107.396V0.981934H107.896H108.899H109.399V0.481934H114.418V0.981934H114.918H115.922H116.422V0.481934H121.441V0.981934H121.941H122.944H123.444V0.481934H128.464V0.981934H128.964H129.967H130.467V0.481934H135.487V0.981934H135.987H136.99H137.49V0.481934H142.51V0.981934H143.01H144.013H144.513V0.481934H149.533V0.981934H150.033H151.036H151.536V0.481934H156.555V0.981934H157.055H158.059H158.559V0.481934H163.578V0.981934H164.078H165.082H165.582V0.481934H170.601V0.981934H171.101H172.104H172.604V0.481934H177.624V0.981934H178.124H179.127H179.627V0.481934H184.647V0.981934H185.147H186.15H186.65V0.481934H191.67V0.981934H192.17H193.173H193.673V0.481934H198.693V0.981934H199.193H200.196H200.696V0.481934H205.715V0.981934H206.215H207.219H207.719V0.481934H212.738V0.981934H213.238H214.242H214.742V0.481934H219.761V0.981934H220.261H221.264H221.764V0.481934H226.784V0.981934H227.284H228.287H228.787V0.481934H233.807V0.981934H234.307H235.31H235.81V0.481934H240.83V0.981934H241.33H242.333H242.833V0.481934H247.853V0.981934H248.353H249.356H249.856V0.481934H254.876V0.981934H255.376H256.379H256.879V0.481934H261.898V0.981934H262.398H262.673L262.829 1.16064L263.157 1.53741L263.534 1.2087L266.541 4.65517L266.164 4.98388L266.493 5.36064L267.104 6.06064L267.432 6.43741L267.809 6.10869L270.816 9.55517L270.439 9.88388L270.768 10.2606L271.379 10.9606L271.707 11.3374L272.084 11.0087L275.091 14.4552L274.714 14.7839L275.043 15.1606L275.654 15.8606L275.982 16.2374L276.359 15.9087L279.366 19.3552L278.989 19.6839L279.318 20.0606L279.5 20.2694V20.5851V21.0851Z" stroke="white" stroke-opacity="0.2" stroke-linecap="square" stroke-linejoin="round" stroke-dasharray="1 6"/>
</svg>
